# xmcd
#
# Track frame offsets: 
#        150
#        15212
#        60297
#        101495
#        138450
#        205742
#        217540
#        274252
#
# Disc length: 4200 seconds
#
# Revision: 1
# Processed by: cddbd v1.5.2PL0 Copyright (c) Steve Scherf et al.
# Submitted via: ExactAudioCopy v1.0b3
#
DISCID=5f106608
DTITLE=渋さ知らズ - 渋さ道
DYEAR=1993
DGENRE=Asia-Jp-Jazz
TTITLE0=阿呆の王 - A-Hoonooh
TTITLE1=アラタのちっちゃな翼 - Little Wing
TTITLE2=那達慕 - NAADAM
TTITLE3=大沼ブルース - Onuma Blues
TTITLE4=戦士 - Senshi
TTITLE5=イゴーゴーゴー - IGO-GO-GO!
TTITLE6=我終于自由了 - At Last I am Free
TTITLE7=我終于自由了 - Sally
EXTD=YEAR: 1996
EXTT0=
EXTT1=
EXTT2=
EXTT3=
EXTT4=
EXTT5=
EXTT6=
EXTT7=
PLAYORDER=
